<!-- Generated by graphviz version 2.40.1 (20161225.0304)
 -->
<!-- Title: G Pages: 1 -->
<svg width="2069pt" height="188pt"
 viewBox="0.00 0.00 2069.15 188.00" xmlns="http://www.w3.org/2000/svg" xmlns:xlink="http://www.w3.org/1999/xlink">
<g id="graph0" class="graph" transform="scale(1 1) rotate(0) translate(4 184)">
<title>G</title>
<polygon fill="#ffffff" stroke="transparent" points="-4,4 -4,-184 2065.1503,-184 2065.1503,4 -4,4"/>
<!-- VervFluxCrowdsale -->
<g id="node1" class="node">
<title>VervFluxCrowdsale</title>
<ellipse fill="none" stroke="#000000" cx="1223.498" cy="-90" rx="86.0826" ry="18"/>
<text text-anchor="middle" x="1223.498" y="-85.8" font-family="sans" font-size="14.00" fill="#000000">VervFluxCrowdsale</text>
</g>
<!-- require -->
<g id="node2" class="node">
<title>require</title>
<ellipse fill="none" stroke="#000000" cx="963.498" cy="-18" rx="37.7699" ry="18"/>
<text text-anchor="middle" x="963.498" y="-13.8" font-family="sans" font-size="14.00" fill="#000000">require</text>
</g>
<!-- VervFluxCrowdsale&#45;&gt;require -->
<g id="edge1" class="edge">
<title>VervFluxCrowdsale&#45;&gt;require</title>
<path fill="none" stroke="#000000" d="M1171.508,-75.6028C1122.8742,-62.1349 1051.1256,-42.2661 1005.8755,-29.7353"/>
<polygon fill="#000000" stroke="#000000" points="1006.6563,-26.3199 996.0848,-27.0241 1004.7881,-33.066 1006.6563,-26.3199"/>
</g>
<!-- isParticipantWhitelisted -->
<g id="node3" class="node">
<title>isParticipantWhitelisted</title>
<ellipse fill="none" stroke="#000000" cx="903.498" cy="-162" rx="101.5506" ry="18"/>
<text text-anchor="middle" x="903.498" y="-157.8" font-family="sans" font-size="14.00" fill="#000000">isParticipantWhitelisted</text>
</g>
<!-- hasEnded -->
<g id="node4" class="node">
<title>hasEnded</title>
<ellipse fill="none" stroke="#000000" cx="1072.498" cy="-162" rx="49.874" ry="18"/>
<text text-anchor="middle" x="1072.498" y="-157.8" font-family="sans" font-size="14.00" fill="#000000">hasEnded</text>
</g>
<!-- buyTokens -->
<g id="node5" class="node">
<title>buyTokens</title>
<ellipse fill="none" stroke="#000000" cx="1380.498" cy="-90" rx="52.2709" ry="18"/>
<text text-anchor="middle" x="1380.498" y="-85.8" font-family="sans" font-size="14.00" fill="#000000">buyTokens</text>
</g>
<!-- buyTokens&#45;&gt;require -->
<g id="edge2" class="edge">
<title>buyTokens&#45;&gt;require</title>
<path fill="none" stroke="#000000" d="M1341.6725,-77.8805C1334.0362,-75.7375 1326.0507,-73.6632 1318.498,-72 1209.194,-47.9296 1078.6021,-31.0619 1010.3395,-23.1328"/>
<polygon fill="#000000" stroke="#000000" points="1010.6651,-19.6472 1000.3308,-21.9826 1009.8658,-26.6015 1010.6651,-19.6472"/>
</g>
<!-- buyTokens&#45;&gt;buyTokens -->
<g id="edge3" class="edge">
<title>buyTokens&#45;&gt;buyTokens</title>
<path fill="none" stroke="#000000" d="M1416.7126,-103.1012C1434.7734,-104.9139 1450.8833,-100.5469 1450.8833,-90 1450.8833,-81.5131 1440.4518,-77.0277 1426.9663,-76.5439"/>
<polygon fill="#000000" stroke="#000000" points="1426.5855,-73.0549 1416.7126,-76.8988 1426.8278,-80.0507 1426.5855,-73.0549"/>
</g>
<!-- finalize -->
<g id="node6" class="node">
<title>finalize</title>
<ellipse fill="none" stroke="#000000" cx="146.498" cy="-90" rx="37.7699" ry="18"/>
<text text-anchor="middle" x="146.498" y="-85.8" font-family="sans" font-size="14.00" fill="#000000">finalize</text>
</g>
<!-- finalize&#45;&gt;require -->
<g id="edge4" class="edge">
<title>finalize&#45;&gt;require</title>
<path fill="none" stroke="#000000" d="M174.4144,-77.7619C180.5945,-75.4913 187.185,-73.3977 193.498,-72 332.1537,-41.3022 769.0096,-24.4208 915.2569,-19.5198"/>
<polygon fill="#000000" stroke="#000000" points="915.8027,-23.0037 925.6813,-19.1743 915.5708,-16.0076 915.8027,-23.0037"/>
</g>
<!-- mint -->
<g id="node7" class="node">
<title>mint</title>
<ellipse fill="none" stroke="#000000" cx="316.498" cy="-18" rx="27" ry="18"/>
<text text-anchor="middle" x="316.498" y="-13.8" font-family="sans" font-size="14.00" fill="#000000">mint</text>
</g>
<!-- finalize&#45;&gt;mint -->
<g id="edge5" class="edge">
<title>finalize&#45;&gt;mint</title>
<path fill="none" stroke="#000000" d="M174.9521,-77.9488C205.1901,-65.1422 252.9006,-44.9354 284.4446,-31.5755"/>
<polygon fill="#000000" stroke="#000000" points="285.8347,-34.7878 293.6779,-27.665 283.1047,-28.3421 285.8347,-34.7878"/>
</g>
<!-- finishMinting -->
<g id="node8" class="node">
<title>finishMinting</title>
<ellipse fill="none" stroke="#000000" cx="168.498" cy="-18" rx="59.0204" ry="18"/>
<text text-anchor="middle" x="168.498" y="-13.8" font-family="sans" font-size="14.00" fill="#000000">finishMinting</text>
</g>
<!-- finalize&#45;&gt;finishMinting -->
<g id="edge6" class="edge">
<title>finalize&#45;&gt;finishMinting</title>
<path fill="none" stroke="#000000" d="M152.0495,-71.8314C154.4282,-64.0463 157.2618,-54.7729 159.9012,-46.1347"/>
<polygon fill="#000000" stroke="#000000" points="163.2967,-46.9996 162.8717,-36.4133 156.6022,-44.954 163.2967,-46.9996"/>
</g>
<!-- Finalized -->
<g id="node9" class="node">
<title>Finalized</title>
<ellipse fill="none" stroke="#000000" cx="45.498" cy="-18" rx="45.4959" ry="18"/>
<text text-anchor="middle" x="45.498" y="-13.8" font-family="sans" font-size="14.00" fill="#000000">Finalized</text>
</g>
<!-- finalize&#45;&gt;Finalized -->
<g id="edge7" class="edge">
<title>finalize&#45;&gt;Finalized</title>
<path fill="none" stroke="#000000" d="M125.0785,-74.7307C110.812,-64.5605 91.8484,-51.0419 76.0116,-39.7523"/>
<polygon fill="#000000" stroke="#000000" points="77.7593,-36.6999 67.5848,-33.7451 73.6959,-42.3999 77.7593,-36.6999"/>
</g>
<!-- vestingContract -->
<g id="node10" class="node">
<title>vestingContract</title>
<ellipse fill="none" stroke="#000000" cx="1211.498" cy="-162" rx="71.5981" ry="18"/>
<text text-anchor="middle" x="1211.498" y="-157.8" font-family="sans" font-size="14.00" fill="#000000">vestingContract</text>
</g>
<!-- updateRate -->
<g id="node11" class="node">
<title>updateRate</title>
<ellipse fill="none" stroke="#000000" cx="548.498" cy="-90" rx="55.6715" ry="18"/>
<text text-anchor="middle" x="548.498" y="-85.8" font-family="sans" font-size="14.00" fill="#000000">updateRate</text>
</g>
<!-- updateRate&#45;&gt;require -->
<g id="edge8" class="edge">
<title>updateRate&#45;&gt;require</title>
<path fill="none" stroke="#000000" d="M591.2882,-78.3C600.2415,-76.0482 609.6497,-73.8257 618.498,-72 724.4534,-50.1381 850.3333,-32.5154 916.8733,-23.845"/>
<polygon fill="#000000" stroke="#000000" points="917.5626,-27.285 927.031,-22.531 916.6646,-20.3429 917.5626,-27.285"/>
</g>
<!-- updateStartTime -->
<g id="node12" class="node">
<title>updateStartTime</title>
<ellipse fill="none" stroke="#000000" cx="881.498" cy="-90" rx="75.3183" ry="18"/>
<text text-anchor="middle" x="881.498" y="-85.8" font-family="sans" font-size="14.00" fill="#000000">updateStartTime</text>
</g>
<!-- updateStartTime&#45;&gt;require -->
<g id="edge9" class="edge">
<title>updateStartTime&#45;&gt;require</title>
<path fill="none" stroke="#000000" d="M901.3479,-72.5708C912.2081,-63.035 925.7947,-51.1053 937.4926,-40.834"/>
<polygon fill="#000000" stroke="#000000" points="940.0275,-43.2659 945.2327,-34.0378 935.4089,-38.0058 940.0275,-43.2659"/>
</g>
<!-- updateEndTime -->
<g id="node13" class="node">
<title>updateEndTime</title>
<ellipse fill="none" stroke="#000000" cx="1046.498" cy="-90" rx="72.4374" ry="18"/>
<text text-anchor="middle" x="1046.498" y="-85.8" font-family="sans" font-size="14.00" fill="#000000">updateEndTime</text>
</g>
<!-- updateEndTime&#45;&gt;require -->
<g id="edge10" class="edge">
<title>updateEndTime&#45;&gt;require</title>
<path fill="none" stroke="#000000" d="M1026.406,-72.5708C1015.3353,-62.9674 1001.4658,-50.936 989.5688,-40.6157"/>
<polygon fill="#000000" stroke="#000000" points="991.5536,-37.7041 981.7062,-33.7951 986.9667,-42.9918 991.5536,-37.7041"/>
</g>
<!-- updateCap -->
<g id="node14" class="node">
<title>updateCap</title>
<ellipse fill="none" stroke="#000000" cx="1522.498" cy="-90" rx="53.2572" ry="18"/>
<text text-anchor="middle" x="1522.498" y="-85.8" font-family="sans" font-size="14.00" fill="#000000">updateCap</text>
</g>
<!-- updateCap&#45;&gt;require -->
<g id="edge11" class="edge">
<title>updateCap&#45;&gt;require</title>
<path fill="none" stroke="#000000" d="M1483.4283,-77.7248C1475.5634,-75.5694 1467.3122,-73.5302 1459.498,-72 1296.7797,-40.1367 1100.0831,-25.7322 1011.1997,-20.4924"/>
<polygon fill="#000000" stroke="#000000" points="1011.343,-16.9949 1001.1578,-19.9126 1010.9394,-23.9833 1011.343,-16.9949"/>
</g>
<!-- CapUpdated -->
<g id="node15" class="node">
<title>CapUpdated</title>
<ellipse fill="none" stroke="#000000" cx="1518.498" cy="-18" rx="59.5308" ry="18"/>
<text text-anchor="middle" x="1518.498" y="-13.8" font-family="sans" font-size="14.00" fill="#000000">CapUpdated</text>
</g>
<!-- updateCap&#45;&gt;CapUpdated -->
<g id="edge12" class="edge">
<title>updateCap&#45;&gt;CapUpdated</title>
<path fill="none" stroke="#000000" d="M1521.4886,-71.8314C1521.0608,-64.131 1520.5521,-54.9743 1520.0767,-46.4166"/>
<polygon fill="#000000" stroke="#000000" points="1523.5703,-46.2037 1519.5209,-36.4133 1516.5811,-46.592 1523.5703,-46.2037"/>
</g>
<!-- whitelistParticipant -->
<g id="node16" class="node">
<title>whitelistParticipant</title>
<ellipse fill="none" stroke="#000000" cx="1679.498" cy="-90" rx="83.1838" ry="18"/>
<text text-anchor="middle" x="1679.498" y="-85.8" font-family="sans" font-size="14.00" fill="#000000">whitelistParticipant</text>
</g>
<!-- whitelistParticipant&#45;&gt;require -->
<g id="edge13" class="edge">
<title>whitelistParticipant&#45;&gt;require</title>
<path fill="none" stroke="#000000" d="M1618.8319,-77.565C1607.4564,-75.5009 1595.6395,-73.536 1584.498,-72 1371.7649,-42.6727 1115.7064,-26.3655 1011.3067,-20.5147"/>
<polygon fill="#000000" stroke="#000000" points="1011.2733,-17.0075 1001.0949,-19.9487 1010.8859,-23.9968 1011.2733,-17.0075"/>
</g>
<!-- WhitelistParticipant -->
<g id="node17" class="node">
<title>WhitelistParticipant</title>
<ellipse fill="none" stroke="#000000" cx="1681.498" cy="-18" rx="85.1048" ry="18"/>
<text text-anchor="middle" x="1681.498" y="-13.8" font-family="sans" font-size="14.00" fill="#000000">WhitelistParticipant</text>
</g>
<!-- whitelistParticipant&#45;&gt;WhitelistParticipant -->
<g id="edge14" class="edge">
<title>whitelistParticipant&#45;&gt;WhitelistParticipant</title>
<path fill="none" stroke="#000000" d="M1680.0026,-71.8314C1680.2165,-64.131 1680.4709,-54.9743 1680.7086,-46.4166"/>
<polygon fill="#000000" stroke="#000000" points="1684.2074,-46.5066 1680.9865,-36.4133 1677.2101,-46.3122 1684.2074,-46.5066"/>
</g>
<!-- disbursePreBuyersLkdContributions -->
<g id="node18" class="node">
<title>disbursePreBuyersLkdContributions</title>
<ellipse fill="none" stroke="#000000" cx="632.498" cy="-162" rx="151.3671" ry="18"/>
<text text-anchor="middle" x="632.498" y="-157.8" font-family="sans" font-size="14.00" fill="#000000">disbursePreBuyersLkdContributions</text>
</g>
<!-- disbursePreBuyersLkdContributions&#45;&gt;require -->
<g id="edge15" class="edge">
<title>disbursePreBuyersLkdContributions&#45;&gt;require</title>
<path fill="none" stroke="#000000" d="M630.8286,-143.6412C630.0622,-123.1691 632.2976,-90.5088 651.498,-72 688.5225,-36.3091 838.0835,-23.9439 915.9078,-19.8732"/>
<polygon fill="#000000" stroke="#000000" points="916.1263,-23.3668 925.9398,-19.3737 915.7781,-16.3755 916.1263,-23.3668"/>
</g>
<!-- distributePreBuyersLkdRewards -->
<g id="node19" class="node">
<title>distributePreBuyersLkdRewards</title>
<ellipse fill="none" stroke="#000000" cx="338.498" cy="-90" rx="136.357" ry="18"/>
<text text-anchor="middle" x="338.498" y="-85.8" font-family="sans" font-size="14.00" fill="#000000">distributePreBuyersLkdRewards</text>
</g>
<!-- disbursePreBuyersLkdContributions&#45;&gt;distributePreBuyersLkdRewards -->
<g id="edge16" class="edge">
<title>disbursePreBuyersLkdContributions&#45;&gt;distributePreBuyersLkdRewards</title>
<path fill="none" stroke="#000000" d="M566.152,-145.752C520.6945,-134.6196 460.3334,-119.8372 413.1874,-108.2913"/>
<polygon fill="#000000" stroke="#000000" points="413.8833,-104.8583 403.3377,-105.8791 412.2181,-111.6574 413.8833,-104.8583"/>
</g>
<!-- forwardFunds -->
<g id="node20" class="node">
<title>forwardFunds</title>
<ellipse fill="none" stroke="#000000" cx="724.498" cy="-90" rx="64.3479" ry="18"/>
<text text-anchor="middle" x="724.498" y="-85.8" font-family="sans" font-size="14.00" fill="#000000">forwardFunds</text>
</g>
<!-- disbursePreBuyersLkdContributions&#45;&gt;forwardFunds -->
<g id="edge17" class="edge">
<title>disbursePreBuyersLkdContributions&#45;&gt;forwardFunds</title>
<path fill="none" stroke="#000000" d="M655.2395,-144.2022C667.1122,-134.9106 681.7899,-123.4237 694.5732,-113.4194"/>
<polygon fill="#000000" stroke="#000000" points="696.9335,-116.0166 702.6515,-107.0972 692.6193,-110.5041 696.9335,-116.0166"/>
</g>
<!-- distributePreBuyersLkdRewards&#45;&gt;require -->
<g id="edge18" class="edge">
<title>distributePreBuyersLkdRewards&#45;&gt;require</title>
<path fill="none" stroke="#000000" d="M437.5384,-77.5516C452.9214,-75.6625 468.6352,-73.7585 483.498,-72 642.3478,-53.2057 830.9639,-32.4392 916.7987,-23.0736"/>
<polygon fill="#000000" stroke="#000000" points="917.1862,-26.5522 926.7479,-21.9889 916.4275,-19.5934 917.1862,-26.5522"/>
</g>
<!-- distributePreBuyersLkdRewards&#45;&gt;mint -->
<g id="edge19" class="edge">
<title>distributePreBuyersLkdRewards&#45;&gt;mint</title>
<path fill="none" stroke="#000000" d="M332.9464,-71.8314C330.5311,-63.9266 327.6468,-54.4872 324.973,-45.7365"/>
<polygon fill="#000000" stroke="#000000" points="328.241,-44.4541 321.9715,-35.9134 321.5465,-46.4997 328.241,-44.4541"/>
</g>
<!-- transition -->
<g id="node21" class="node">
<title>transition</title>
<ellipse fill="none" stroke="#c0c0c0" cx="1347.498" cy="-162" rx="45.9804" ry="18"/>
<text text-anchor="middle" x="1347.498" y="-157.8" font-family="sans" font-size="14.00" fill="#000000">transition</text>
</g>
<!-- createTokenContract -->
<g id="node22" class="node">
<title>createTokenContract</title>
<ellipse fill="none" stroke="#c0c0c0" cx="1503.498" cy="-162" rx="91.9123" ry="18"/>
<text text-anchor="middle" x="1503.498" y="-157.8" font-family="sans" font-size="14.00" fill="#000000">createTokenContract</text>
</g>
<!-- validInvestment -->
<g id="node23" class="node">
<title>validInvestment</title>
<ellipse fill="none" stroke="#c0c0c0" cx="1684.498" cy="-162" rx="71.5981" ry="18"/>
<text text-anchor="middle" x="1684.498" y="-157.8" font-family="sans" font-size="14.00" fill="#000000">validInvestment</text>
</g>
<!-- getTokenAmount -->
<g id="node24" class="node">
<title>getTokenAmount</title>
<ellipse fill="none" stroke="#c0c0c0" cx="1850.498" cy="-162" rx="76.452" ry="18"/>
<text text-anchor="middle" x="1850.498" y="-157.8" font-family="sans" font-size="14.00" fill="#000000">getTokenAmount</text>
</g>
<!-- nextStage -->
<g id="node25" class="node">
<title>nextStage</title>
<ellipse fill="none" stroke="#c0c0c0" cx="1994.498" cy="-162" rx="49.8654" ry="18"/>
<text text-anchor="middle" x="1994.498" y="-157.8" font-family="sans" font-size="14.00" fill="#000000">nextStage</text>
</g>
<!-- StageUpdated -->
<g id="node26" class="node">
<title>StageUpdated</title>
<ellipse fill="none" stroke="#000000" cx="1994.498" cy="-90" rx="66.805" ry="18"/>
<text text-anchor="middle" x="1994.498" y="-85.8" font-family="sans" font-size="14.00" fill="#000000">StageUpdated</text>
</g>
<!-- nextStage&#45;&gt;StageUpdated -->
<g id="edge20" class="edge">
<title>nextStage&#45;&gt;StageUpdated</title>
<path fill="none" stroke="#000000" d="M1994.498,-143.8314C1994.498,-136.131 1994.498,-126.9743 1994.498,-118.4166"/>
<polygon fill="#000000" stroke="#000000" points="1997.9981,-118.4132 1994.498,-108.4133 1990.9981,-118.4133 1997.9981,-118.4132"/>
</g>
</g>
</svg>
